ffmpeg started on 2025-05-12 at 21:14:17
Report written to "D:\Convert\FFMetrics\reports\ssim_report-6.txt"
Log level: 32
Command line:
ffmpeg -hide_banner -nostdin -i "G:\\\xc0\xed\xe8\xec\xe5\\\xce\xed\xe3\xee\xe8\xed\xe3\xe8\\!_35_\xcb\xe5\xf2\xee_2024\\DreamCast-1\\\xd1\xe0\xec\xfb\xe9 \xf1\xe8\xeb\xfc\xed\xfb\xe9 \xe2\xee\xeb\xf8\xe5\xe1\xed\xe8\xea \xe0\xf0\xec\xe8\xe8 \xef\xee\xe2\xe5\xeb\xe8\xf2\xe5\xeb\xff \xe4\xe5\xec\xee\xed\xee\xe2 \xee\xea\xe0\xe7\xe0\xeb\xf1\xff \xf7\xe5\xeb\xee\xe2\xe5\xea\xee\xec\\DC_Maou_Gun_Saikyou_no_Majutsushi_wa_Ningen_datta_04_Telegram_HEVC.mkv" -i "G:\\\xc0\xed\xe8\xec\xe5\\\xce\xed\xe3\xee\xe8\xed\xe3\xe8\\!_35_\xcb\xe5\xf2\xee_2024\\DreamCast-1\\\xd1\xe0\xec\xfb\xe9 \xf1\xe8\xeb\xfc\xed\xfb\xe9 \xe2\xee\xeb\xf8\xe5\xe1\xed\xe8\xea \xe0\xf0\xec\xe8\xe8 \xef\xee\xe2\xe5\xeb\xe8\xf2\xe5\xeb\xff \xe4\xe5\xec\xee\xed\xee\xe2 \xee\xea\xe0\xe7\xe0\xeb\xf1\xff \xf7\xe5\xeb\xee\xe2\xe5\xea\xee\xec\\DC_Maou_Gun_Saikyou_no_Majutsushi_wa_Ningen_datta_04_Telegram.mp4" -lavfi "[0:v]settb=AVTB,setpts=PTS-STARTPTS,format=pix_fmts=yuv420p10,fps=24000/1001,scale=1920:1080:flags=bicubic[main];[1:v]settb=AVTB,setpts=PTS-STARTPTS,format=pix_fmts=yuv420p,fps=24000/1001,scale=1920:1080:flags=bicubic[ref];[main][ref]ssim=eof_action=endall:stats_file='D\\:/Convert/FFMetrics/logs/ssim_logfile-6.txt'" -f null -
Input #0, matroska,webm, from 'G:\Аниме\Онгоинги\!_35_Лето_2024\DreamCast-1\Самый сильный волшебник армии повелителя демонов оказался человеком\DC_Maou_Gun_Saikyou_no_Majutsushi_wa_Ningen_datta_04_Telegram_HEVC.mkv':
  Metadata:
    COMPATIBLE_BRANDS: isomiso2avc1mp41
    MAJOR_BRAND     : isom
    MINOR_VERSION   : 512
    ENCODER         : Lavf61.7.100
  Duration: 00:23:46.69, start: -0.021000, bitrate: 762 kb/s
  Stream #0:0: Video: hevc (Main 10), yuv420p10le(tv, bt709, progressive), 1920x1080 [SAR 1:1 DAR 16:9], 23.98 fps, 23.98 tbr, 1k tbn (default)
      Metadata:
        HANDLER_NAME    : VideoHandler
        VENDOR_ID       : [0][0][0][0]
        ENCODER         : Lavc61.19.100 libx265
        BPS             : 565566
        DURATION        : 00:23:46.508708333
        NUMBER_OF_FRAMES: 34202
        NUMBER_OF_BYTES : 100848093
        _STATISTICS_WRITING_APP: mkvpropedit v66.0.0 ('Josie') 64-bit
        _STATISTICS_WRITING_DATE_UTC: 2025-05-10 15:27:27
        _STATISTICS_TAGS: BPS DURATION NUMBER_OF_FRAMES NUMBER_OF_BYTES
  Stream #0:1: Audio: aac (LC), 48000 Hz, stereo, fltp (default)
      Metadata:
        HANDLER_NAME    : SoundHandler
        VENDOR_ID       : [0][0][0][0]
        ENCODER         : Lavc61.19.100 aac
        BPS             : 193382
        DURATION        : 00:23:46.688000000
        NUMBER_OF_FRAMES: 66877
        NUMBER_OF_BYTES : 34487023
        _STATISTICS_WRITING_APP: mkvpropedit v66.0.0 ('Josie') 64-bit
        _STATISTICS_WRITING_DATE_UTC: 2025-05-10 15:27:27
        _STATISTICS_TAGS: BPS DURATION NUMBER_OF_FRAMES NUMBER_OF_BYTES
Input #1, mov,mp4,m4a,3gp,3g2,mj2, from 'G:\Аниме\Онгоинги\!_35_Лето_2024\DreamCast-1\Самый сильный волшебник армии повелителя демонов оказался человеком\DC_Maou_Gun_Saikyou_no_Majutsushi_wa_Ningen_datta_04_Telegram.mp4':
  Metadata:
    major_brand     : isom
    minor_version   : 512
    compatible_brands: isomiso2avc1mp41
    encoder         : Lavf61.1.100
  Duration: 00:23:46.63, start: 0.000000, bitrate: 3475 kb/s
  Stream #1:0[0x1](und): Video: h264 (High) (avc1 / 0x31637661), yuv420p(tv, bt709, progressive), 1920x1080 [SAR 1:1 DAR 16:9], 3327 kb/s, 23.98 fps, 23.98 tbr, 24k tbn (default)
      Metadata:
        handler_name    : VideoHandler
        vendor_id       : [0][0][0][0]
        encoder         : Lavc61.3.100 h264_qsv
  Stream #1:1[0x2](und): Audio: aac (HE-AACv2) (mp4a / 0x6134706D), 48000 Hz, stereo, fltp, 144 kb/s (default)
      Metadata:
        handler_name    : SoundHandler
        vendor_id       : [0][0][0][0]
Stream mapping:
  Stream #0:0 (hevc) -> settb:default
  Stream #1:0 (h264) -> settb:default
  ssim:default -> Stream #0:0 (wrapped_avframe)
  Stream #0:1 -> #0:1 (aac (native) -> pcm_s16le (native))
Output #0, null, to 'pipe:':
  Metadata:
    COMPATIBLE_BRANDS: isomiso2avc1mp41
    MAJOR_BRAND     : isom
    MINOR_VERSION   : 512
    encoder         : Lavf61.7.100
  Stream #0:0: Video: wrapped_avframe, yuv420p10le(tv, bt709, progressive), 1920x1080 [SAR 1:1 DAR 16:9], q=2-31, 200 kb/s, 23.98 fps, 23.98 tbn
      Metadata:
        encoder         : Lavc61.19.100 wrapped_avframe
  Stream #0:1: Audio: pcm_s16le, 48000 Hz, stereo, s16, 1536 kb/s (default)
      Metadata:
        HANDLER_NAME    : SoundHandler
        VENDOR_ID       : [0][0][0][0]
        _STATISTICS_TAGS: BPS DURATION NUMBER_OF_FRAMES NUMBER_OF_BYTES
        BPS             : 193382
        DURATION        : 00:23:46.688000000
        NUMBER_OF_FRAMES: 66877
        NUMBER_OF_BYTES : 34487023
        _STATISTICS_WRITING_APP: mkvpropedit v66.0.0 ('Josie') 64-bit
        _STATISTICS_WRITING_DATE_UTC: 2025-05-10 15:27:27
        encoder         : Lavc61.19.100 pcm_s16le
frame=  155 fps=0.0 q=-0.0 size=N/A time=00:00:06.46 bitrate=N/A speed=12.5x    frame=  374 fps=360 q=-0.0 size=N/A time=00:00:15.59 bitrate=N/A speed=  15x    frame=  602 fps=388 q=-0.0 size=N/A time=00:00:25.10 bitrate=N/A speed=16.2x    frame=  834 fps=403 q=-0.0 size=N/A time=00:00:34.78 bitrate=N/A speed=16.8x    frame= 1082 fps=420 q=-0.0 size=N/A time=00:00:45.12 bitrate=N/A speed=17.5x    frame= 1314 fps=424 q=-0.0 size=N/A time=00:00:54.80 bitrate=N/A speed=17.7x    frame= 1549 fps=430 q=-0.0 size=N/A time=00:01:04.60 bitrate=N/A speed=17.9x    frame= 1817 fps=440 q=-0.0 size=N/A time=00:01:15.78 bitrate=N/A speed=18.4x    frame= 2079 fps=447 q=-0.0 size=N/A time=00:01:26.71 bitrate=N/A speed=18.7x    frame= 2320 fps=450 q=-0.0 size=N/A time=00:01:36.76 bitrate=N/A speed=18.8x    frame= 2572 fps=453 q=-0.0 size=N/A time=00:01:47.27 bitrate=N/A speed=18.9x    frame= 2805 fps=453 q=-0.0 size=N/A time=00:01:56.99 bitrate=N/A speed=18.9x    frame= 3039 fps=453 q=-0.0 size=N/A time=00:02:06.75 bitrate=N/A speed=18.9x    frame= 3237 fps=448 q=-0.0 size=N/A time=00:02:15.00 bitrate=N/A speed=18.7x    frame= 3424 fps=442 q=-0.0 size=N/A time=00:02:22.80 bitrate=N/A speed=18.5x    frame= 3659 fps=444 q=-0.0 size=N/A time=00:02:32.61 bitrate=N/A speed=18.5x    frame= 3899 fps=445 q=-0.0 size=N/A time=00:02:42.62 bitrate=N/A speed=18.6x    frame= 4114 fps=443 q=-0.0 size=N/A time=00:02:51.58 bitrate=N/A speed=18.5x    frame= 4309 fps=440 q=-0.0 size=N/A time=00:02:59.72 bitrate=N/A speed=18.3x    frame= 4504 fps=436 q=-0.0 size=N/A time=00:03:07.85 bitrate=N/A speed=18.2x    frame= 4723 fps=436 q=-0.0 size=N/A time=00:03:16.98 bitrate=N/A speed=18.2x    frame= 4956 fps=437 q=-0.0 size=N/A time=00:03:26.70 bitrate=N/A speed=18.2x    frame= 5193 fps=438 q=-0.0 size=N/A time=00:03:36.59 bitrate=N/A speed=18.3x    frame= 5464 fps=441 q=-0.0 size=N/A time=00:03:47.89 bitrate=N/A speed=18.4x    frame= 5702 fps=443 q=-0.0 size=N/A time=00:03:57.82 bitrate=N/A speed=18.5x    frame= 5948 fps=444 q=-0.0 size=N/A time=00:04:08.08 bitrate=N/A speed=18.5x    frame= 6199 fps=445 q=-0.0 size=N/A time=00:04:18.54 bitrate=N/A speed=18.6x    frame= 6442 fps=446 q=-0.0 size=N/A time=00:04:28.68 bitrate=N/A speed=18.6x    frame= 6713 fps=449 q=-0.0 size=N/A time=00:04:39.98 bitrate=N/A speed=18.7x    frame= 6953 fps=449 q=-0.0 size=N/A time=00:04:49.99 bitrate=N/A speed=18.7x    frame= 7211 fps=451 q=-0.0 size=N/A time=00:05:00.75 bitrate=N/A speed=18.8x    frame= 7473 fps=453 q=-0.0 size=N/A time=00:05:11.68 bitrate=N/A speed=18.9x    frame= 7723 fps=454 q=-0.0 size=N/A time=00:05:22.11 bitrate=N/A speed=18.9x    frame= 7981 fps=455 q=-0.0 size=N/A time=00:05:32.87 bitrate=N/A speed=  19x    frame= 8224 fps=456 q=-0.0 size=N/A time=00:05:43.00 bitrate=N/A speed=  19x    frame= 8483 fps=457 q=-0.0 size=N/A time=00:05:53.81 bitrate=N/A speed=  19x    frame= 8748 fps=458 q=-0.0 size=N/A time=00:06:04.86 bitrate=N/A speed=19.1x    frame= 9011 fps=460 q=-0.0 size=N/A time=00:06:15.83 bitrate=N/A speed=19.2x    frame= 9274 fps=461 q=-0.0 size=N/A time=00:06:26.80 bitrate=N/A speed=19.2x    frame= 9521 fps=461 q=-0.0 size=N/A time=00:06:37.10 bitrate=N/A speed=19.2x    frame= 9769 fps=462 q=-0.0 size=N/A time=00:06:47.44 bitrate=N/A speed=19.3x    frame=10017 fps=462 q=-0.0 size=N/A time=00:06:57.79 bitrate=N/A speed=19.3x    frame=10258 fps=462 q=-0.0 size=N/A time=00:07:07.84 bitrate=N/A speed=19.3x    frame=10520 fps=463 q=-0.0 size=N/A time=00:07:18.77 bitrate=N/A speed=19.3x    frame=10769 fps=464 q=-0.0 size=N/A time=00:07:29.15 bitrate=N/A speed=19.3x    frame=11012 fps=464 q=-0.0 size=N/A time=00:07:39.29 bitrate=N/A speed=19.4x    frame=11268 fps=465 q=-0.0 size=N/A time=00:07:49.96 bitrate=N/A speed=19.4x    frame=11526 fps=465 q=-0.0 size=N/A time=00:08:00.73 bitrate=N/A speed=19.4x    frame=11786 fps=466 q=-0.0 size=N/A time=00:08:11.57 bitrate=N/A speed=19.4x    frame=12045 fps=467 q=-0.0 size=N/A time=00:08:22.37 bitrate=N/A speed=19.5x    frame=12281 fps=467 q=-0.0 size=N/A time=00:08:32.22 bitrate=N/A speed=19.5x    frame=12528 fps=467 q=-0.0 size=N/A time=00:08:42.52 bitrate=N/A speed=19.5x    frame=12764 fps=467 q=-0.0 size=N/A time=00:08:52.36 bitrate=N/A speed=19.5x    frame=13002 fps=467 q=-0.0 size=N/A time=00:09:02.29 bitrate=N/A speed=19.5x    frame=13266 fps=467 q=-0.0 size=N/A time=00:09:13.30 bitrate=N/A speed=19.5x    frame=13514 fps=468 q=-0.0 size=N/A time=00:09:23.64 bitrate=N/A speed=19.5x    frame=13751 fps=468 q=-0.0 size=N/A time=00:09:33.53 bitrate=N/A speed=19.5x    frame=14002 fps=468 q=-0.0 size=N/A time=00:09:44.00 bitrate=N/A speed=19.5x    frame=14233 fps=468 q=-0.0 size=N/A time=00:09:53.63 bitrate=N/A speed=19.5x    frame=14469 fps=467 q=-0.0 size=N/A time=00:10:03.47 bitrate=N/A speed=19.5x    frame=14737 fps=468 q=-0.0 size=N/A time=00:10:14.65 bitrate=N/A speed=19.5x    frame=14984 fps=468 q=-0.0 size=N/A time=00:10:24.95 bitrate=N/A speed=19.5x    frame=15232 fps=469 q=-0.0 size=N/A time=00:10:35.30 bitrate=N/A speed=19.5x    frame=15469 fps=469 q=-0.0 size=N/A time=00:10:45.18 bitrate=N/A speed=19.5x    frame=15729 fps=469 q=-0.0 size=N/A time=00:10:56.03 bitrate=N/A speed=19.6x    frame=15967 fps=469 q=-0.0 size=N/A time=00:11:05.95 bitrate=N/A speed=19.6x    frame=16188 fps=468 q=-0.0 size=N/A time=00:11:15.17 bitrate=N/A speed=19.5x    frame=16424 fps=468 q=-0.0 size=N/A time=00:11:25.01 bitrate=N/A speed=19.5x    frame=16632 fps=467 q=-0.0 size=N/A time=00:11:33.69 bitrate=N/A speed=19.5x    frame=16851 fps=467 q=-0.0 size=N/A time=00:11:42.82 bitrate=N/A speed=19.5x    frame=17098 fps=467 q=-0.0 size=N/A time=00:11:53.12 bitrate=N/A speed=19.5x    frame=17330 fps=466 q=-0.0 size=N/A time=00:12:02.80 bitrate=N/A speed=19.5x    frame=17592 fps=467 q=-0.0 size=N/A time=00:12:13.73 bitrate=N/A speed=19.5x    frame=17850 fps=467 q=-0.0 size=N/A time=00:12:24.49 bitrate=N/A speed=19.5x    frame=18095 fps=468 q=-0.0 size=N/A time=00:12:34.71 bitrate=N/A speed=19.5x    frame=18344 fps=468 q=-0.0 size=N/A time=00:12:45.09 bitrate=N/A speed=19.5x    frame=18595 fps=468 q=-0.0 size=N/A time=00:12:55.56 bitrate=N/A speed=19.5x    frame=18861 fps=469 q=-0.0 size=N/A time=00:13:06.66 bitrate=N/A speed=19.5x    frame=19111 fps=469 q=-0.0 size=N/A time=00:13:17.08 bitrate=N/A speed=19.6x    frame=19374 fps=469 q=-0.0 size=N/A time=00:13:28.05 bitrate=N/A speed=19.6x    frame=19625 fps=470 q=-0.0 size=N/A time=00:13:38.52 bitrate=N/A speed=19.6x    frame=19868 fps=470 q=-0.0 size=N/A time=00:13:48.66 bitrate=N/A speed=19.6x    frame=20122 fps=470 q=-0.0 size=N/A time=00:13:59.25 bitrate=N/A speed=19.6x    frame=20391 fps=470 q=-0.0 size=N/A time=00:14:10.47 bitrate=N/A speed=19.6x    frame=20651 fps=471 q=-0.0 size=N/A time=00:14:21.31 bitrate=N/A speed=19.6x    frame=20882 fps=471 q=-0.0 size=N/A time=00:14:30.95 bitrate=N/A speed=19.6x    frame=21133 fps=471 q=-0.0 size=N/A time=00:14:41.42 bitrate=N/A speed=19.6x    frame=21378 fps=471 q=-0.0 size=N/A time=00:14:51.64 bitrate=N/A speed=19.6x    frame=21642 fps=471 q=-0.0 size=N/A time=00:15:02.65 bitrate=N/A speed=19.7x    frame=21899 fps=472 q=-0.0 size=N/A time=00:15:13.37 bitrate=N/A speed=19.7x    frame=22146 fps=472 q=-0.0 size=N/A time=00:15:23.67 bitrate=N/A speed=19.7x    frame=22406 fps=472 q=-0.0 size=N/A time=00:15:34.51 bitrate=N/A speed=19.7x    frame=22657 fps=472 q=-0.0 size=N/A time=00:15:44.98 bitrate=N/A speed=19.7x    frame=22896 fps=472 q=-0.0 size=N/A time=00:15:54.95 bitrate=N/A speed=19.7x    frame=23130 fps=472 q=-0.0 size=N/A time=00:16:04.71 bitrate=N/A speed=19.7x    frame=23385 fps=472 q=-0.0 size=N/A time=00:16:15.34 bitrate=N/A speed=19.7x    frame=23644 fps=472 q=-0.0 size=N/A time=00:16:26.15 bitrate=N/A speed=19.7x    frame=23911 fps=473 q=-0.0 size=N/A time=00:16:37.28 bitrate=N/A speed=19.7x    frame=24184 fps=473 q=-0.0 size=N/A time=00:16:48.67 bitrate=N/A speed=19.7x    frame=24425 fps=473 q=-0.0 size=N/A time=00:16:58.72 bitrate=N/A speed=19.7x    frame=24600 fps=472 q=-0.0 size=N/A time=00:17:06.02 bitrate=N/A speed=19.7x    frame=24849 fps=472 q=-0.0 size=N/A time=00:17:16.41 bitrate=N/A speed=19.7x    frame=25108 fps=472 q=-0.0 size=N/A time=00:17:27.21 bitrate=N/A speed=19.7x    frame=25344 fps=472 q=-0.0 size=N/A time=00:17:37.05 bitrate=N/A speed=19.7x    frame=25593 fps=472 q=-0.0 size=N/A time=00:17:47.44 bitrate=N/A speed=19.7x    frame=25830 fps=472 q=-0.0 size=N/A time=00:17:57.32 bitrate=N/A speed=19.7x    frame=26091 fps=473 q=-0.0 size=N/A time=00:18:08.21 bitrate=N/A speed=19.7x    frame=26345 fps=473 q=-0.0 size=N/A time=00:18:18.80 bitrate=N/A speed=19.7x    frame=26597 fps=473 q=-0.0 size=N/A time=00:18:29.31 bitrate=N/A speed=19.7x    frame=26855 fps=473 q=-0.0 size=N/A time=00:18:40.07 bitrate=N/A speed=19.7x    frame=27097 fps=473 q=-0.0 size=N/A time=00:18:50.17 bitrate=N/A speed=19.7x    frame=27323 fps=473 q=-0.0 size=N/A time=00:18:59.59 bitrate=N/A speed=19.7x    frame=27553 fps=473 q=-0.0 size=N/A time=00:19:09.18 bitrate=N/A speed=19.7x    frame=27785 fps=472 q=-0.0 size=N/A time=00:19:18.86 bitrate=N/A speed=19.7x    frame=28040 fps=473 q=-0.0 size=N/A time=00:19:29.50 bitrate=N/A speed=19.7x    frame=28267 fps=472 q=-0.0 size=N/A time=00:19:38.96 bitrate=N/A speed=19.7x    frame=28509 fps=472 q=-0.0 size=N/A time=00:19:49.06 bitrate=N/A speed=19.7x    frame=28755 fps=472 q=-0.0 size=N/A time=00:19:59.32 bitrate=N/A speed=19.7x    frame=28978 fps=472 q=-0.0 size=N/A time=00:20:08.62 bitrate=N/A speed=19.7x    frame=29215 fps=472 q=-0.0 size=N/A time=00:20:18.50 bitrate=N/A speed=19.7x    frame=29474 fps=472 q=-0.0 size=N/A time=00:20:29.31 bitrate=N/A speed=19.7x    frame=29689 fps=472 q=-0.0 size=N/A time=00:20:38.27 bitrate=N/A speed=19.7x    frame=29953 fps=472 q=-0.0 size=N/A time=00:20:49.28 bitrate=N/A speed=19.7x    frame=30220 fps=472 q=-0.0 size=N/A time=00:21:00.42 bitrate=N/A speed=19.7x    frame=30472 fps=473 q=-0.0 size=N/A time=00:21:10.93 bitrate=N/A speed=19.7x    frame=30715 fps=473 q=-0.0 size=N/A time=00:21:21.07 bitrate=N/A speed=19.7x    frame=30954 fps=473 q=-0.0 size=N/A time=00:21:31.03 bitrate=N/A speed=19.7x    frame=31203 fps=473 q=-0.0 size=N/A time=00:21:41.42 bitrate=N/A speed=19.7x    frame=31401 fps=472 q=-0.0 size=N/A time=00:21:49.68 bitrate=N/A speed=19.7x    frame=31608 fps=471 q=-0.0 size=N/A time=00:21:58.31 bitrate=N/A speed=19.7x    frame=31850 fps=471 q=-0.0 size=N/A time=00:22:08.41 bitrate=N/A speed=19.7x    frame=32065 fps=471 q=-0.0 size=N/A time=00:22:17.37 bitrate=N/A speed=19.6x    frame=32285 fps=471 q=-0.0 size=N/A time=00:22:26.55 bitrate=N/A speed=19.6x    frame=32486 fps=470 q=-0.0 size=N/A time=00:22:34.93 bitrate=N/A speed=19.6x    frame=32699 fps=470 q=-0.0 size=N/A time=00:22:43.82 bitrate=N/A speed=19.6x    frame=32870 fps=469 q=-0.0 size=N/A time=00:22:50.95 bitrate=N/A speed=19.5x    frame=33070 fps=468 q=-0.0 size=N/A time=00:22:59.29 bitrate=N/A speed=19.5x    frame=33268 fps=467 q=-0.0 size=N/A time=00:23:07.55 bitrate=N/A speed=19.5x    frame=33472 fps=467 q=-0.0 size=N/A time=00:23:16.06 bitrate=N/A speed=19.5x    frame=33676 fps=466 q=-0.0 size=N/A time=00:23:24.56 bitrate=N/A speed=19.4x    frame=33884 fps=466 q=-0.0 size=N/A time=00:23:33.24 bitrate=N/A speed=19.4x    frame=34091 fps=465 q=-0.0 size=N/A time=00:23:41.87 bitrate=N/A speed=19.4x    [Parsed_ssim_10 @ 0000024afafd6dc0] SSIM Y:0.995833 (23.802250) U:0.994018 (22.231379) V:0.994356 (22.484053) All:0.995285 (23.264806)
[out#0/null @ 0000024aee2cf5c0] video:14696KiB audio:267508KiB subtitle:0KiB other streams:0KiB global headers:0KiB muxing overhead: unknown
frame=34202 fps=465 q=-0.0 Lsize=N/A time=00:23:46.50 bitrate=N/A speed=19.4x    
